<?xml version="1.0" encoding="utf-8"?>
<!-- Generator: Adobe Illustrator 24.1.2, SVG Export Plug-In . SVG Version: 6.00 Build 0)  -->
<svg version="1.1" id="layer" xmlns="http://www.w3.org/2000/svg" xmlns:xlink="http://www.w3.org/1999/xlink" x="0px" y="0px"
	 viewBox="0 0 652 78.4" style="enable-background:new 0 0 652 78.4;" xml:space="preserve">
<style type="text/css">
	.st0{fill:#030000;}
	.st1{fill:#E0002A;}
</style>
<path class="st0" d="M47.5,16.5l5.1,33.2H42.4L47.5,16.5z M37,1.9L20.4,78.1h17.9l2.2-14.6h14l2.2,14.6h17.8L58.1,1.9L37,1.9L37,1.9
	z"/>
<polygon class="st0" points="81.6,1.9 81.6,78 120.7,78 120.7,62.6 99.4,62.6 99.4,1.9 "/>
<polygon class="st0" points="128.6,1.9 128.6,78 167.8,78 167.8,62.6 146.5,62.6 146.5,1.9 "/>
<polygon class="st0" points="175.7,1.9 175.7,78 217.2,78 217.2,62.5 193.5,62.5 193.5,45.9 215.3,45.9 215.3,30.6 193.5,30.6 
	193.5,16.7 217.2,16.7 217.2,1.9 "/>
<g>
	<path class="st0" d="M228.2,1.9h18.5l14.8,47c-1.1-15.1-1.7-26.7-1.7-35V2h15.9v76.2h-18.6l-14.9-48.4c1.3,12.3,2,24.1,2,35.5v12.9
		h-16L228.2,1.9L228.2,1.9z"/>
	<path class="st1" d="M326,74.2c-5.3,3.8-10.8,5.7-17.1,5.7c-13.5,0-22.4-9.3-22.4-22.6c0-9.9,4.3-17.1,13.7-24.4
		c-3.7-5.6-5.6-10.7-5.6-15.6c0-9.8,7.8-17.3,19.2-17.3c11.3,0,18.6,6.5,18.6,16.3c0,7.9-3.9,14-12.5,19.2l7.5,12.2
		c1.4-3.3,2.2-6.7,2.4-10h13.3c-0.3,8.2-2.7,16.2-7.1,23.7l10.5,17h-17.8L326,74.2z M307.4,44.9c-3.4,3.3-5.2,6.8-5.2,10.7
		c0,6,3.7,10.1,9.1,10.1c2.1,0,4.5-1.1,7.2-3.2L307.4,44.9z M318,16c0-2.8-1.9-4.7-4.9-4.7c-2.7,0-4.6,1.8-4.6,4.6
		c0,3,1.3,5.6,3.7,8.7C316.1,22.1,318,19.3,318,16"/>
	<polygon class="st0" points="355.2,1.9 373,1.9 373,30.6 387.3,30.6 387.3,1.9 404.7,1.9 404.7,78 387.3,78 387.3,46.4 373,46.4 
		373,78 355.2,78 	"/>
	<polygon class="st0" points="417.1,1.9 458.5,1.9 458.5,16.7 434.8,16.7 434.8,30.6 456.7,30.6 456.7,45.9 434.8,45.9 434.8,62.5 
		458.5,62.5 458.5,78 417.1,78 	"/>
	<path class="st0" d="M480.7,1.9h21.2l16.4,76.2h-17.8l-2.2-14.6h-14l-2.2,14.6H464L480.7,1.9z M496.3,49.7l-5.1-33.2L486,49.7
		H496.3z"/>
	<polygon class="st0" points="530.8,16.7 516.5,16.7 516.5,1.9 563.6,1.9 563.6,16.7 548.6,16.7 548.6,78 530.8,78 	"/>
	<polygon class="st0" points="570.9,1.9 588.7,1.9 588.7,30.6 603,30.6 603,1.9 620.4,1.9 620.4,78 603,78 603,46.4 588.7,46.4 
		588.7,78 570.9,78 	"/>
</g>
</svg>
