<?xml version="1.0" encoding="utf-8"?>
<!-- Generator: Adobe Illustrator 24.1.2, SVG Export Plug-In . SVG Version: 6.00 Build 0)  -->
<svg version="1.1" id="layer" xmlns="http://www.w3.org/2000/svg" xmlns:xlink="http://www.w3.org/1999/xlink" x="0px" y="0px"
	 viewBox="0 0 652 499.8" style="enable-background:new 0 0 652 499.8;" xml:space="preserve">
<style type="text/css">
	.st0{fill:#161616;}
</style>
<path class="st0" d="M274.2,400.4c-18.9,0-34.2,15.3-34.2,34.2v27.2c0,3.4,2.7,6.2,6.1,6.4h6.9v-33.5c0-11.8,9.5-21.3,21.3-21.3
	c9,0,16.7,5.6,19.8,13.5h13.5C303.9,411.7,290.4,400.4,274.2,400.4"/>
<path class="st0" d="M121.5,400.4c-18.9,0-34.2,15.3-34.2,34.2s15.3,34.2,34.2,34.2c15.4,0,28.5-10.2,32.8-24.2h-14
	c-3.6,6.7-10.6,11.3-18.8,11.3c-10.1,0-18.6-7.1-20.7-16.6h52.7l0,0h1.9c0.2-1.5,0.4-3.1,0.4-4.7
	C155.7,415.7,140.4,400.4,121.5,400.4 M101.7,426.9c3.1-7.9,10.8-13.6,19.8-13.6s16.7,5.6,19.8,13.6H101.7z"/>
<path class="st0" d="M520.7,400.4c-18.9,0-34.2,15.3-34.2,34.2s15.3,34.2,34.2,34.2c15.4,0,28.4-10.2,32.7-24.2h-13.9
	c-3.6,6.7-10.7,11.3-18.8,11.3c-10.1,0-18.6-7.1-20.8-16.6h52.7l0,0h2c0.2-1.5,0.4-3.1,0.4-4.7C555,415.7,539.6,400.4,520.7,400.4
	 M500.9,426.9c3.1-7.9,10.8-13.6,19.8-13.6c9,0,16.7,5.6,19.8,13.6H500.9z"/>
<path class="st0" d="M445.1,400.4c-18.9,0-34.2,15.3-34.2,34.2s15.3,34.2,34.2,34.2c8.1,0,15.5-2.8,21.4-7.5v4.3
	c0,11.7-9.6,21.3-21.3,21.3c-9,0-16.7-5.6-19.8-13.5h-13.5c3.5,15.1,17.1,26.4,33.3,26.4c18.9,0,34.2-15.3,34.1-34.2v-30.5
	c0-0.2,0-0.3,0-0.5C479.3,415.7,464,400.4,445.1,400.4 M445.1,455.9c-11.8,0-21.3-9.5-21.3-21.3s9.5-21.3,21.3-21.3
	s21.3,9.5,21.3,21.3S456.8,455.9,445.1,455.9"/>
<path class="st0" d="M320.1,379.3c-3.6,0-6.5,2.9-6.5,6.5c0,3.6,2.9,6.5,6.5,6.5s6.5-2.9,6.5-6.5
	C326.6,382.2,323.7,379.3,320.1,379.3"/>
<path class="st0" d="M369.7,400.4c-18.9,0-34.2,15.3-34.2,34.2v27.1c0,3.6,2.9,6.5,6.5,6.5h6.4l0.1-33.6c0-11.8,9.5-21.3,21.3-21.3
	s21.3,9.5,21.3,21.3v27.1c0,3.6,2.9,6.5,6.5,6.5h6.5v-33.6C403.9,415.8,388.6,400.4,369.7,400.4"/>
<path class="st0" d="M596.3,400.4c-18.9,0-34.2,15.3-34.2,34.2V462c0.1,3.4,2.9,6.2,6.4,6.2h6.5v-33.5c0-11.8,9.5-21.3,21.3-21.3
	c9,0,16.7,5.6,19.8,13.5h13.5C626.1,411.7,612.5,400.4,596.3,400.4"/>
<path class="st0" d="M46.1,400.4c-8.2,0-15.8,2.9-21.7,7.8v-26.3l0,0c0-3.6-2.9-6.5-6.5-6.5l0,0h-6v58.7c0,0.2,0,0.3,0,0.5
	c0,18.9,15.3,34.2,34.2,34.2s34.2-15.3,34.2-34.2S65,400.4,46.1,400.4 M46.1,455.9c-11.8,0-21.3-9.5-21.3-21.3s9.5-21.3,21.3-21.3
	s21.3,9.5,21.3,21.3C67.4,446.4,57.9,455.9,46.1,455.9"/>
<path class="st0" d="M313.6,461.8c0,3.5,2.9,6.4,6.5,6.4l0,0h6.5v-67.4h-13"/>
<path class="st0" d="M197.1,400.4c-8.1,0-15.4,2.8-21.2,7.4v-26c0-3.6-2.9-6.4-6.5-6.4h-6.5v86.4c0,3.6,2.9,6.5,6.5,6.5h6.5v-34.7
	c0.6-11.3,9.8-20.2,21.2-20.2c11.7,0,21.3,9.5,21.3,21.3v27.2c0,3.4,2.7,6.2,6.1,6.4h6.8v-33.6C231.3,415.8,216,400.4,197.1,400.4"
	/>
<path class="st0" d="M111.5,338.6l5.5,1.8l2.9,0.7l5.9,0.5h389.8l5.5-0.4l3.2-0.7l5.3-1.7l3-1.4l2.4-1.3l4.8-3.4l2.3-2l2.3-2.5
	l1.6-2l3-4.9l2.4-5.9l0.8-2.6l0.9-5.7l0.1-6l-0.8-5.7l-1-3.5l-2-5l-3.2-5.2l-196-268.5l-2.1-2.3l-2.4-2.2l-2-1.6l-5-3.1l-5.3-2.2
	l-2.9-0.9l-6-0.9h-5.7L313,0.8l-5.7,1.7l-5.4,2.6l-5,3.8l-2,1.8l-2.2,2.5l-1.7,2.1L94.2,283.8l-2.7,5.3l-1.1,2.9l-1.4,5.8l-0.4,2.8
	v5.9l0.8,5.7l0.9,3.2l2.1,5.2l3.3,5.3l1.6,2.2l2,2.3l2.3,2.1l4.7,3.4 M103.6,323.1l-1.3-1.8l-2.6-4l-1.8-4.5l-0.7-2.1l-0.7-4.6v-4.7
	l0.3-2.2l1.2-4.5l0.8-2.2l2.1-4.3L297.6,20.1l1.4-1.8l1.7-1.8l1.6-1.5l3.7-2.9l4.1-2.1l4.5-1.4l4.5-0.7h4.5l4.7,0.7l2.1,0.7l4.3,1.8
	l4,2.4l3.4,2.9l1.5,1.7L539,286.3l2.6,4.1l1.7,4.3l0.7,2.3l0.7,4.6v4.7l-0.7,4.6l-0.6,2l-1.8,4.5l-2.5,4.1l-2.9,3.3l-1.7,1.5l-4,2.9
	l-1.8,1l-2.2,1l-4.5,1.4l-2.1,0.5l-4.9,0.4H126l-4.9-0.4l-2.1-0.5l-4.4-1.4l-4.2-2.1l-3.9-2.9l-1.7-1.5L103.6,323.1z"/>
<path class="st0" d="M223.4,284.7c6.7,5.4,14.6,7.3,22.2,7.7c10.2,0.6,20.9-1.6,26.5-3.2c7.9-2.2,19.4-6.6,35.9-17.5
	c14.5-9.5,30.1-23.4,42.1-37.3c16.5-19.1,32.6-47.6,34.2-71c4.1-58.9-48-51-67.7-44.4c-16,5.3-32.8,16.4-35.4,18.1c0,0,0,0-0.1,0
	s-0.1,0.1-0.2,0.1l-0.1,0.1c-0.8,0.6-1.2,1.5-0.8,2c0.4,0.6,1.3,0.6,2.2,0.2l0,0c0,0,13.4-9.2,29.3-13.8c11.2-3.2,23.6-4.1,33.5,1.6
	c26.1,15,12.8,60.1-8,90c-11.9,17.2-29.2,35.7-48.6,48.3c-15,9.7-29.4,16.3-46.3,16.4c-34.8,0.1-31-38.7-31-38.7l0,0v-0.1
	c0.1-1.1-0.2-2.1-0.8-2.2s-1.1,0.8-1.2,2c0,0.1,0,0.1,0,0.2C208.6,248.8,205.1,270.1,223.4,284.7"/>
<path class="st0" d="M224.5,227.3c3.5-0.6,8.2-1.7,13.6-3.9c7.5-3.1,22.5-10.8,36.6-24.3c11.2-10.7,18.3-22.8,18.1-32.3
	c-0.4-13.5-15.3-13.6-21.2-13.1c-1.4,0.1-2.7,0.8-3.4,1.8c-6.8,9.9-45.1,65.7-46.7,67.9C219.6,226.1,220.7,227.9,224.5,227.3"/>
</svg>
