<svg id="Layer_1" data-name="Layer 1" xmlns="http://www.w3.org/2000/svg" viewBox="0 0 201.27 30.26"><defs><style>.cls-1{fill:#c93;fill-rule:evenodd;}</style></defs><path class="cls-1" d="M83.1,3.27V.42L78.87.4V3.27Zm0,7.21V4.58H78.87v5.9Zm0,8.38V11.79H78.88v7.07Zm0,7V20.17H78.88v5.71Zm-4.26,4.19h4.27V27.2H78.89v2.87Zm80.46-26.8A8.3,8.3,0,0,0,156.48,1c-2.64-1.2-9.21-.73-12.58-.73-3.11,0-10.33-.37-12.84.47a8.16,8.16,0,0,0-3.58,2.56ZM157.08,27.2v2.89l4.23,0V27.2Zm0-7c0,.31,0,.64,0,1v4.71h4.24V20.17Zm-31.58,7V30h4.23V27.2Zm0-7,0,5.71h4.24l0-5.71Zm31.47-8.38a2,2,0,0,1-1.1,1.35c-.85.33-19.85.21-23.38.19-1.58,0-2.35-.71-2.59-1.54H125.5c0,.75-.07,1.51-.07,2.2l0,4.87h4.44c.75-1.68,3.6-1.48,6.15-1.54h18.17c2.16,0,2.71.52,2.83,1.55h4.27V11.79ZM131.16,9c.88-.3,19.76-.2,23.29-.17,1.57,0,2.32.76,2.53,1.63h4.35V9.26a7.72,7.72,0,0,0-1.08-4.68H126.58a7.44,7.44,0,0,0-1,4.12c0,.54,0,1.15,0,1.78h4.32A2.14,2.14,0,0,1,131.16,9ZM53.4,27.2c0,1,0,2,0,3H58c0-1,0-2,0-3Zm0-7c0,1.91,0,3.81,0,5.71H58c0-1.9,0-3.81,0-5.71Zm.07-8.38c0,1-.06,2.39-.06,4.22v2.85H58c0-2.22,0-4.44,0-6.66,0-.14,0-.28,0-.41ZM35.57,27.2v3l4.54,0c0-1,0-2,0-3Zm0-7v5.71h4.56V20.17Zm0-8.38v7.07h4.56c0-.87,0-1.75,0-2.62,0-2-.08-3.39-.08-4.45ZM73.66,3.27a8.87,8.87,0,0,0-.85-.94C70.66.29,68.59.24,65,.24q-9.85,0-19.73,0c-3.59,0-6.09,1-7.64,3ZM71.41,27.2c0,1.36,0,2.4,0,2.86h4.16V27.2Zm0-7c0,2,0,4,0,5.71h4.21l0-5.71Zm-.08-8.38c.07,1.6.09,4.26.08,7.07h4.21l0-7.07Zm-.19-1.54s0,.1.08.23h4.43V9.34a8.18,8.18,0,0,0-1.12-4.76H36.77a13.61,13.61,0,0,0-1.2,5.82v.08h4.56c.28-1.87,1.59-1.6,6.67-1.6s6.33-.29,6.62,1.6h4.7c.57-2.49,3.06-1.57,10-1.6,1.65,0,2.69-.13,3,1.37Zm49.17-7A7,7,0,0,0,115.16.4L86.26.35V3.27ZM115.14,30a6.81,6.81,0,0,0,5.18-2.84H86.24v2.92l28.9-.08ZM90.47,18.86c-.07-1.49,0-3.72,0-7.07H86.25v7.07Zm27.41,1.31c-.42,2-1.77,1.53-5.83,1.54H96.36c-4,0-5.35.48-5.75-1.54H86.25v5.71h34.94c.09-.16.18-.33.25-.49a13.54,13.54,0,0,0,1-5.22Zm.13-8.38c0,3.35.09,5.58,0,7.07h4.46c0-1.17,0-2.36,0-3.52s0-2.36,0-3.55ZM90.55,10.48c.22-1.43,1.14-1.6,2.89-1.6h20.18c2.16,0,4.15-.37,4.37,1.6h4.46a15.47,15.47,0,0,0-1-5.26c-.09-.21-.19-.42-.3-.64H86.26v5.9Zm108.5-7.21A7.84,7.84,0,0,0,193.89.33c-4-.5-11.14-.08-15.46-.08-5.39,0-9.35-.43-12,3Zm-30,7.21c.45-2.33,3.47-1.6,6-1.6H201a9.5,9.5,0,0,0-1.07-4.3H165.67a15.54,15.54,0,0,0-1.32,5.9ZM166.46,27.2a7.81,7.81,0,0,0,5,2.92c1.69.25,12.82.09,15.44.09,5.42,0,9.44.52,12.11-3Zm29.55-7c-.54,2-3.48,1.42-5.92,1.42-6.58,0-20.59-.35-25.56,0a9.86,9.86,0,0,0,1.09,4.25h34.23a16.83,16.83,0,0,0,1.31-5.71Zm-31.6-3.12c1.63.27,21.81.09,25.23.09,2.69,0,6-.77,6.41,1.72h5.19a41.64,41.64,0,0,0-.16-5.54H175.52c-2.47,0-6,.73-6.48-1.54H164.3c0,1.75,0,3.54.11,5.26ZM15.08,12.16a2.92,2.92,0,1,1-2.92,2.92,2.91,2.91,0,0,1,2.92-2.92ZM15.08,0A15.08,15.08,0,1,0,30.16,15.08,15.08,15.08,0,0,0,15.08,0Zm2.39,6.63a8.82,8.82,0,0,0-4.78,0v6.06H6.63a8.82,8.82,0,0,0,0,4.78h6.06v6.06a8.82,8.82,0,0,0,4.78,0V17.47h6.06a8.82,8.82,0,0,0,0-4.78H17.47V6.63ZM6.63,12.69a8.76,8.76,0,0,1,6.06-6.06V4.36a11,11,0,0,0-8.33,8.33Zm6.06,10.84a8.78,8.78,0,0,1-6.06-6.06H4.36a11,11,0,0,0,8.33,8.33V23.53Zm10.84-6.06a8.8,8.8,0,0,1-6.06,6.06V25.8a11,11,0,0,0,8.33-8.33ZM17.47,6.63a8.78,8.78,0,0,1,6.06,6.06H25.8a11,11,0,0,0-8.33-8.33Z"/></svg>